<svg width="127" height="127" viewBox="0 0 127 127" fill="none" xmlns="http://www.w3.org/2000/svg">
<path fill-rule="evenodd" clip-rule="evenodd" d="M76.6952 10.1163C68.7851 13.5052 57.3687 13.5052 49.4585 10.1162C43.0316 7.36272 35.8427 7.10737 29.2095 9.99268C15.2113 16.0816 8.93291 33.8752 15.0255 49.9266C15.0268 49.9302 15.0268 49.9341 15.0253 49.9376L16.9266 54.0718C23.3535 68.0468 28.1979 82.6964 31.3695 97.7479L34.3865 112.066C35.4306 116.182 39.1202 119.062 43.3481 119.062C47.8888 119.062 51.7579 115.751 52.4787 111.246L56.7321 84.6713C57.233 81.5414 59.9216 79.2399 63.077 79.2399C66.2324 79.2399 68.9211 81.5414 69.422 84.6713L73.6752 111.246C74.3961 115.751 78.2651 119.062 82.8059 119.062C87.0338 119.062 90.7234 116.182 91.7675 112.066L94.7845 97.7479C97.9561 82.6964 102.8 68.0468 109.227 54.0718L111.129 49.9376C111.127 49.9341 111.127 49.9302 111.128 49.9266C117.221 33.8752 110.943 16.0815 96.9445 9.99268C90.3112 7.10734 83.1223 7.3627 76.6952 10.1163Z" fill="url(#paint0_linear_0_433)"/>
<defs>
<linearGradient id="paint0_linear_0_433" x1="26.0353" y1="7.9375" x2="86.7837" y2="114.617" gradientUnits="userSpaceOnUse">
<stop stop-color="#F0F6F9"/>
<stop offset="1" stop-color="#CDDFF2"/>
</linearGradient>
</defs>
</svg>
